<?xml version="1.0" encoding="UTF-8" standalone="no"?>
<svg
   xmlns:dc="http://purl.org/dc/elements/1.1/"
   xmlns:cc="http://creativecommons.org/ns#"
   xmlns:rdf="http://www.w3.org/1999/02/22-rdf-syntax-ns#"
   xmlns:svg="http://www.w3.org/2000/svg"
   xmlns="http://www.w3.org/2000/svg"
   xmlns:sodipodi="http://sodipodi.sourceforge.net/DTD/sodipodi-0.dtd"
   xmlns:inkscape="http://www.inkscape.org/namespaces/inkscape"
   width="210mm"
   height="210mm"
   viewBox="0 0 210 210"
   version="1.1"
   id="svg8"
   inkscape:version="1.0.2-2 (e86c870879, 2021-01-15)"
   sodipodi:docname="logo.svg"
   inkscape:export-filename="D:\dev\dev\jiamingwang-portfolio\source\jiamingwang-portfolio\public\assets\logo.png"
   inkscape:export-xdpi="130.62857"
   inkscape:export-ydpi="130.62857">
  <defs
     id="defs2" />
  <sodipodi:namedview
     id="base"
     pagecolor="#1e1e1e"
     bordercolor="#666666"
     borderopacity="1.0"
     inkscape:pageopacity="0"
     inkscape:pageshadow="2"
     inkscape:zoom="0.75986213"
     inkscape:cx="284.65056"
     inkscape:cy="315.99696"
     inkscape:document-units="mm"
     inkscape:current-layer="layer1"
     inkscape:document-rotation="0"
     showgrid="false"
     inkscape:window-width="1920"
     inkscape:window-height="1001"
     inkscape:window-x="-9"
     inkscape:window-y="1071"
     inkscape:window-maximized="1" />
  <metadata
     id="metadata5">
    <rdf:RDF>
      <cc:Work
         rdf:about="">
        <dc:format>image/svg+xml</dc:format>
        <dc:type
           rdf:resource="http://purl.org/dc/dcmitype/StillImage" />
        <dc:title />
      </cc:Work>
    </rdf:RDF>
  </metadata>
  <g
     inkscape:label="Layer 1"
     inkscape:groupmode="layer"
     id="layer1"
     style="display:inline">
    <path
       id="text835"
       style="font-style:normal;font-variant:normal;font-weight:normal;font-stretch:normal;font-size:213.636px;line-height:1.25;font-family:Bahnschrift;-inkscape-font-specification:'Bahnschrift, @wght=330,wdth=100.0';font-variant-ligatures:normal;font-variant-caps:normal;font-variant-numeric:normal;font-variant-east-asian:normal;font-variation-settings:'wdth' 100, 'wght' 330;fill:#fafafa;fill-opacity:1;stroke:none;stroke-width:20.186"
       d="M 259.88672 94.035156 L 259.88672 481.49609 C 259.88672 524.06272 250.08768 557.11196 230.49023 580.64258 C 211.15409 603.90881 183.71834 615.54297 148.18164 615.54297 C 126.23251 615.54297 106.37382 611.31201 88.605469 602.85156 C 71.09842 594.12673 56.988659 581.96418 46.275391 566.36523 L 0.025390625 608.4043 C 15.703345 629.8198 35.953917 646.60764 60.777344 658.76953 C 85.86207 670.66704 113.1685 676.61523 142.69531 676.61523 C 180.845 676.61523 213.37524 669.07994 240.28906 654.00977 C 267.46418 638.6752 288.10859 616.46755 302.21875 587.38477 C 307.35607 576.69985 311.54561 565.2348 314.8125 553.00781 L 319.35156 554.22461 L 794.00391 676.68945 L 794.00391 615.29883 L 395.53906 516.88477 L 794.00391 418.46875 L 794.00391 393.53516 L 677.84375 393.53516 L 577.71094 418.70703 L 577.71094 351.27148 L 679.00391 376.16602 L 794.00391 376.16602 L 794.00391 354.86328 L 577.71094 301.44531 L 577.71094 212.63477 L 794.00391 158.34766 L 794.00391 94.109375 L 323.38281 217.73242 L 323.38281 94.035156 L 259.88672 94.035156 z M 550.53711 219.45508 L 550.52148 294.73047 L 434.21094 266.00391 L 323.38281 266.00391 L 323.38281 248.63477 L 434.2793 248.63477 L 550.53711 219.45508 z M 323.38281 288.76562 L 550.51172 344.58594 L 550.49609 425.54883 L 323.375 482.64453 C 323.37554 482.39213 323.38281 482.14542 323.38281 481.89258 L 323.38281 288.76562 z "
       transform="scale(0.26458333)" />
  </g>
</svg>
