<?xml version="1.0" encoding="UTF-8" standalone="no"?>
<svg
   xmlns:dc="http://purl.org/dc/elements/1.1/"
   xmlns:cc="http://creativecommons.org/ns#"
   xmlns:rdf="http://www.w3.org/1999/02/22-rdf-syntax-ns#"
   xmlns:svg="http://www.w3.org/2000/svg"
   xmlns="http://www.w3.org/2000/svg"
   xmlns:sodipodi="http://sodipodi.sourceforge.net/DTD/sodipodi-0.dtd"
   xmlns:inkscape="http://www.inkscape.org/namespaces/inkscape"
   width="240mm"
   height="240mm"
   viewBox="0 0 240 240"
   version="1.1"
   id="svg8"
   inkscape:version="1.0.2-2 (e86c870879, 2021-01-15)"
   sodipodi:docname="logo_Export-ver.svg"
   inkscape:export-filename="D:\dev\dev\jiamingwang-portfolio\source\jiamingwang-portfolio\public\assets\logo_Export-ver.png"
   inkscape:export-xdpi="211.66667"
   inkscape:export-ydpi="211.66667">
  <defs
     id="defs2" />
  <sodipodi:namedview
     id="base"
     pagecolor="#1e1e1e"
     bordercolor="#666666"
     borderopacity="1.0"
     inkscape:pageopacity="0"
     inkscape:pageshadow="2"
     inkscape:zoom="0.53730366"
     inkscape:cx="337.10002"
     inkscape:cy="400.04579"
     inkscape:document-units="mm"
     inkscape:current-layer="layer1"
     inkscape:document-rotation="0"
     showgrid="false"
     inkscape:window-width="1920"
     inkscape:window-height="1001"
     inkscape:window-x="-9"
     inkscape:window-y="1071"
     inkscape:window-maximized="1"
     inkscape:snap-object-midpoints="true"
     inkscape:snap-center="true" />
  <metadata
     id="metadata5">
    <rdf:RDF>
      <cc:Work
         rdf:about="">
        <dc:format>image/svg+xml</dc:format>
        <dc:type
           rdf:resource="http://purl.org/dc/dcmitype/StillImage" />
        <dc:title></dc:title>
      </cc:Work>
    </rdf:RDF>
  </metadata>
  <g
     inkscape:label="Layer 1"
     inkscape:groupmode="layer"
     id="layer1"
     style="display:inline">
    <rect
       style="font-variation-settings:'wdth' 100, 'wght' 330;opacity:0.999;fill:#0a0a0a;stroke-width:0;stroke-linejoin:round;fill-opacity:1"
       id="rect831"
       width="240"
       height="240"
       x="0"
       y="0" />
    <path
       id="text835"
       style="font-style:normal;font-variant:normal;font-weight:normal;font-stretch:normal;font-size:213.636px;line-height:1.25;font-family:Bahnschrift;-inkscape-font-specification:'Bahnschrift, @wght=330,wdth=100.0';font-variant-ligatures:normal;font-variant-caps:normal;font-variant-numeric:normal;font-variant-east-asian:normal;font-variation-settings:'wdth' 100, 'wght' 330;fill:#fafafa;fill-opacity:1;stroke:none;stroke-width:5.91677"
       d="M 79.806066,34.608321 V 148.17803 c 0,12.47682 -2.872223,22.16398 -8.616483,29.0611 -5.667669,6.81962 -13.709434,10.22974 -24.125691,10.22974 -6.433568,0 -12.254402,-1.24014 -17.462531,-3.72001 -5.131538,-2.55736 -9.267288,-6.12236 -12.407482,-10.69461 L 3.6374175,185.37644 c 4.5954067,6.27715 10.5311065,11.19788 17.8071675,14.76269 7.35265,3.48731 15.356512,5.23079 24.011193,5.23079 11.182158,0 20.717184,-2.20868 28.605966,-6.62594 7.965371,-4.49476 14.01651,-11.0041 18.152376,-19.52863 1.505815,-3.13189 2.733822,-6.49244 3.691389,-10.07632 l 1.330455,0.35665 139.126616,35.896 v -17.99437 l -116.7951,-28.84641 116.7951,-28.84697 v -7.30836 h -34.04801 l -29.35019,7.37819 v -19.76621 l 29.69025,7.29691 h 33.70795 v -6.24411 L 172.96438,95.402865 V 69.371371 l 63.3982,-15.91224 V 34.630076 L 98.417572,70.865556 V 34.608321 Z m 85.193304,36.762169 -0.004,22.06417 -34.09209,-8.420119 H 98.417572 v -5.091115 h 32.505178 z m -66.581798,20.315797 66.574368,16.361653 -0.004,23.73125 -66.572076,16.73547 c 1.66e-4,-0.074 0.0022,-0.1463 0.0022,-0.22042 z" />
  </g>
</svg>
